<svg width="1039" height="404" viewBox="0 0 1039 404" fill="none" xmlns="http://www.w3.org/2000/svg">
<g filter="url(#filter0_d)">
<path d="M16 42V24C16 14.0589 24.0589 6 34 6H126C135.941 6 144 14.0589 144 24C144 33.9411 152.059 42 162 42H1005C1014.94 42 1023 50.0589 1023 60V360C1023 369.941 1014.94 378 1005 378H34C24.0589 378 16 369.941 16 360V42Z" fill="white"/>
<path d="M16.5 42V24C16.5 14.335 24.335 6.5 34 6.5H126C135.665 6.5 143.5 14.335 143.5 24C143.5 34.2173 151.783 42.5 162 42.5H1005C1014.66 42.5 1022.5 50.335 1022.5 60V360C1022.5 369.665 1014.66 377.5 1005 377.5H34C24.335 377.5 16.5 369.665 16.5 360V42Z" stroke="#E5E5E5"/>
</g>
<defs>
<filter id="filter0_d" x="0" y="0" width="1039" height="404" filterUnits="userSpaceOnUse" color-interpolation-filters="sRGB">
<feFlood flood-opacity="0" result="BackgroundImageFix"/>
<feColorMatrix in="SourceAlpha" type="matrix" values="0 0 0 0 0 0 0 0 0 0 0 0 0 0 0 0 0 0 127 0"/>
<feOffset dy="10"/>
<feGaussianBlur stdDeviation="8"/>
<feColorMatrix type="matrix" values="0 0 0 0 0.309804 0 0 0 0 0.309804 0 0 0 0 0.309804 0 0 0 0.1 0"/>
<feBlend mode="normal" in2="BackgroundImageFix" result="effect1_dropShadow"/>
<feBlend mode="normal" in="SourceGraphic" in2="effect1_dropShadow" result="shape"/>
</filter>
</defs>
</svg>
